<?xml version="1.0" encoding="utf-8"?>
<!-- Generator: Adobe Illustrator 27.8.0, SVG Export Plug-In . SVG Version: 6.00 Build 0)  -->
<svg version="1.1" id="Laag_1" xmlns="http://www.w3.org/2000/svg" xmlns:xlink="http://www.w3.org/1999/xlink" x="0px" y="0px"
	 viewBox="0 0 84.7 14.8" style="enable-background:new 0 0 84.7 14.8;" xml:space="preserve">
<style type="text/css">
	.st0{fill:#3C3C3B;}
	.st1{fill:#D6DA2C;}
	.st2{fill:#FFFFFF;}
</style>
<g>
	<path class="st2" d="M7.4,6.8C8,6.4,8.6,5.8,8.9,5.1c0.3-0.9,0.3-1.9,0-2.8c-0.5-1.3-1.7-2.1-3-2.1H0v14.3h6.4c2,0,3.7-1.5,3.8-3.5
		C10.4,9.1,9.2,7.3,7.4,6.8z M6.4,14.1H0.5V7.1h5.9c1.8,0,3.3,1.4,3.3,3.2c0,0.1,0,0.2,0,0.3c0,0.9-0.3,1.7-0.8,2.4
		C8.2,13.7,7.3,14.1,6.4,14.1L6.4,14.1z M5.8,0.7C7,0.7,8,1.4,8.4,2.5c0.3,0.8,0.3,1.6,0,2.4C8,6,7,6.7,5.8,6.6H0.5V0.7H5.8z"/>
	<path class="st2" d="M16.4,8.6c2.3,0.1,4.2-1.6,4.3-3.8c0-0.1,0-0.3,0-0.4c0.1-2.3-1.7-4.1-4-4.2c-0.1,0-0.3,0-0.4,0h-5v14.3h0.5
		V0.7h4.5c2-0.1,3.7,1.4,3.9,3.4c0,0.1,0,0.2,0,0.3c0.1,2-1.5,3.7-3.5,3.8c-0.1,0-0.2,0-0.3,0h-2.8v0.4l6.6,5.9h0.7l-6.5-5.9H16.4z"
		/>
	<path class="st2" d="M27.3,0h-0.5l-5.8,14.5h0.5l1.9-4.8h7.1l1.9,4.8h0.5L27.3,0L27.3,0z M30.4,9.3h-6.7l3.3-8.6L30.4,9.3z"/>
	<polygon class="st2" points="43.6,13.6 34.4,0.2 34.3,0.2 33.9,0.2 33.9,14.5 34.4,14.5 34.4,1.2 43.7,14.5 44.1,14.5 44.1,0.2 
		43.6,0.2 	"/>
	<path class="st2" d="M56,2.5c-1.4-1.5-3.3-2.3-5.3-2.2h-4.8v14.3h4.8c2,0.1,4-0.7,5.3-2.2c1.2-1.4,1.8-3.1,1.8-4.9
		C57.8,5.6,57.2,3.8,56,2.5z M50.7,14.1h-4.4V0.7h4.4c3.5-0.1,6.5,2.6,6.6,6.1c0,0.2,0,0.4,0,0.6c0,1.7-0.6,3.3-1.7,4.6
		C54.4,13.4,52.6,14.2,50.7,14.1z"/>
	<path class="st2" d="M74.2,14.4V0.3h1.6l6.9,10v-10h2v14.2h-1.6l-6.8-9.9v9.9H74.2z"/>
	<path class="st1" d="M65.5,8c0.2,0.1,0.3,0.1,0.5,0.1c0.6,0,1.1-0.4,1.2-1c0-0.1,0-0.2,0-0.4V1.3c0-0.4-0.2-0.8-0.5-1.1
		c-0.1-0.1-0.2-0.1-0.3-0.2l-0.2-0.1h-0.4c-0.6,0.1-1,0.6-1,1.2v5.6C64.9,7.3,65.1,7.8,65.5,8z"/>
	<path class="st1" d="M73.4,6.8c-0.1-1.3-0.6-2.6-1.4-3.7c-0.4-0.5-0.8-1-1.3-1.4c-0.2-0.2-0.4-0.2-0.7-0.2c-0.5,0-0.9,0.5-0.9,0.9
		c0,0.3,0.2,0.6,0.4,0.8c1,0.8,1.7,2,1.9,3.3c0.2,1.1,0.1,2.3-0.4,3.3c-0.9,1.9-2.8,3.1-4.9,3.1c-1.4,0-2.7-0.5-3.7-1.4
		c-0.8-0.8-1.4-1.7-1.6-2.8c-0.3-1.2-0.1-2.5,0.4-3.6c0.3-0.7,0.8-1.3,1.5-1.8C62.9,3,63.1,2.7,63,2.3c-0.1-0.5-0.5-0.8-1-0.8
		c-0.2,0-0.4,0.1-0.6,0.3c-0.8,0.6-1.4,1.4-1.9,2.3c-0.4,0.8-0.7,1.8-0.8,2.7c-0.1,1.1,0,2.1,0.4,3.1c1.1,3,3.9,4.9,7.1,4.8l0,0
		c1.1,0,2.2-0.3,3.2-0.8c2-1,3.4-2.9,3.8-5.1C73.4,8.2,73.4,7.5,73.4,6.8z"/>
</g>
</svg>
